<mxfile host="Electron" modified="2024-05-24T19:23:50.164Z" agent="Mozilla/5.0 (Windows NT 10.0; Win64; x64) AppleWebKit/537.36 (KHTML, like Gecko) draw.io/24.2.5 Chrome/120.0.6099.109 Electron/28.1.0 Safari/537.36" etag="iO4lnodDrqwKn0aLnoES" version="24.2.5" type="device">
  <diagram name="Page-1" id="ZKStmGWbIqrhJLMvr5HR">
    <mxGraphModel dx="1502" dy="663" grid="0" gridSize="10" guides="1" tooltips="1" connect="1" arrows="1" fold="1" page="1" pageScale="1" pageWidth="850" pageHeight="1100" math="0" shadow="0">
      <root>
        <mxCell id="0" />
        <mxCell id="1" parent="0" />
        <mxCell id="unA21zPk_1MnVArvOttu-22" style="edgeStyle=orthogonalEdgeStyle;rounded=0;orthogonalLoop=1;jettySize=auto;html=1;entryX=0;entryY=0.5;entryDx=0;entryDy=0;curved=1;" edge="1" parent="1" source="unA21zPk_1MnVArvOttu-1" target="unA21zPk_1MnVArvOttu-5">
          <mxGeometry relative="1" as="geometry">
            <Array as="points">
              <mxPoint x="215" y="80" />
            </Array>
          </mxGeometry>
        </mxCell>
        <mxCell id="unA21zPk_1MnVArvOttu-23" style="edgeStyle=orthogonalEdgeStyle;rounded=0;orthogonalLoop=1;jettySize=auto;html=1;exitX=0.75;exitY=0.1;exitDx=0;exitDy=0;exitPerimeter=0;curved=1;" edge="1" parent="1" source="unA21zPk_1MnVArvOttu-1" target="unA21zPk_1MnVArvOttu-6">
          <mxGeometry relative="1" as="geometry" />
        </mxCell>
        <mxCell id="unA21zPk_1MnVArvOttu-24" style="edgeStyle=orthogonalEdgeStyle;rounded=0;orthogonalLoop=1;jettySize=auto;html=1;exitX=1;exitY=0.3333333333333333;exitDx=0;exitDy=0;exitPerimeter=0;curved=1;" edge="1" parent="1" source="unA21zPk_1MnVArvOttu-1" target="unA21zPk_1MnVArvOttu-7">
          <mxGeometry relative="1" as="geometry" />
        </mxCell>
        <mxCell id="unA21zPk_1MnVArvOttu-25" style="edgeStyle=orthogonalEdgeStyle;rounded=0;orthogonalLoop=1;jettySize=auto;html=1;exitX=1;exitY=1;exitDx=0;exitDy=0;exitPerimeter=0;entryX=0;entryY=0.5;entryDx=0;entryDy=0;curved=1;" edge="1" parent="1" source="unA21zPk_1MnVArvOttu-1" target="unA21zPk_1MnVArvOttu-8">
          <mxGeometry relative="1" as="geometry" />
        </mxCell>
        <mxCell id="unA21zPk_1MnVArvOttu-1" value="User" style="shape=umlActor;verticalLabelPosition=bottom;verticalAlign=top;html=1;" vertex="1" parent="1">
          <mxGeometry x="200" y="180" width="30" height="60" as="geometry" />
        </mxCell>
        <mxCell id="unA21zPk_1MnVArvOttu-26" style="edgeStyle=orthogonalEdgeStyle;rounded=0;orthogonalLoop=1;jettySize=auto;html=1;exitX=0.5;exitY=0;exitDx=0;exitDy=0;exitPerimeter=0;entryX=1;entryY=0.5;entryDx=0;entryDy=0;curved=1;" edge="1" parent="1" source="unA21zPk_1MnVArvOttu-2" target="unA21zPk_1MnVArvOttu-15">
          <mxGeometry relative="1" as="geometry" />
        </mxCell>
        <mxCell id="unA21zPk_1MnVArvOttu-27" style="edgeStyle=orthogonalEdgeStyle;rounded=0;orthogonalLoop=1;jettySize=auto;html=1;exitX=0.5;exitY=0.5;exitDx=0;exitDy=0;exitPerimeter=0;entryX=1;entryY=0.5;entryDx=0;entryDy=0;curved=1;" edge="1" parent="1" source="unA21zPk_1MnVArvOttu-2" target="unA21zPk_1MnVArvOttu-13">
          <mxGeometry relative="1" as="geometry" />
        </mxCell>
        <mxCell id="unA21zPk_1MnVArvOttu-28" style="edgeStyle=orthogonalEdgeStyle;rounded=0;orthogonalLoop=1;jettySize=auto;html=1;exitX=0;exitY=1;exitDx=0;exitDy=0;exitPerimeter=0;entryX=1;entryY=0.5;entryDx=0;entryDy=0;curved=1;" edge="1" parent="1" source="unA21zPk_1MnVArvOttu-2" target="unA21zPk_1MnVArvOttu-14">
          <mxGeometry relative="1" as="geometry" />
        </mxCell>
        <mxCell id="unA21zPk_1MnVArvOttu-2" value="Admin" style="shape=umlActor;verticalLabelPosition=bottom;verticalAlign=top;html=1;" vertex="1" parent="1">
          <mxGeometry x="640" y="170" width="30" height="60" as="geometry" />
        </mxCell>
        <mxCell id="unA21zPk_1MnVArvOttu-35" style="edgeStyle=orthogonalEdgeStyle;rounded=0;orthogonalLoop=1;jettySize=auto;html=1;exitX=0.5;exitY=0.5;exitDx=0;exitDy=0;exitPerimeter=0;entryX=1;entryY=0.5;entryDx=0;entryDy=0;curved=1;" edge="1" parent="1" source="unA21zPk_1MnVArvOttu-3" target="unA21zPk_1MnVArvOttu-18">
          <mxGeometry relative="1" as="geometry" />
        </mxCell>
        <mxCell id="unA21zPk_1MnVArvOttu-36" style="edgeStyle=orthogonalEdgeStyle;rounded=0;orthogonalLoop=1;jettySize=auto;html=1;exitX=0.5;exitY=0;exitDx=0;exitDy=0;exitPerimeter=0;entryX=1;entryY=0.5;entryDx=0;entryDy=0;curved=1;" edge="1" parent="1" source="unA21zPk_1MnVArvOttu-3" target="unA21zPk_1MnVArvOttu-20">
          <mxGeometry relative="1" as="geometry" />
        </mxCell>
        <mxCell id="unA21zPk_1MnVArvOttu-39" style="edgeStyle=orthogonalEdgeStyle;rounded=0;orthogonalLoop=1;jettySize=auto;html=1;exitX=0;exitY=1;exitDx=0;exitDy=0;exitPerimeter=0;entryX=1;entryY=0.5;entryDx=0;entryDy=0;curved=1;" edge="1" parent="1" source="unA21zPk_1MnVArvOttu-3" target="unA21zPk_1MnVArvOttu-21">
          <mxGeometry relative="1" as="geometry" />
        </mxCell>
        <mxCell id="unA21zPk_1MnVArvOttu-3" value="Teacher" style="shape=umlActor;verticalLabelPosition=bottom;verticalAlign=top;html=1;" vertex="1" parent="1">
          <mxGeometry x="600" y="520" width="30" height="60" as="geometry" />
        </mxCell>
        <mxCell id="unA21zPk_1MnVArvOttu-37" style="edgeStyle=orthogonalEdgeStyle;rounded=0;orthogonalLoop=1;jettySize=auto;html=1;exitX=0.5;exitY=0;exitDx=0;exitDy=0;exitPerimeter=0;entryX=0;entryY=0.5;entryDx=0;entryDy=0;curved=1;" edge="1" parent="1" source="unA21zPk_1MnVArvOttu-4" target="unA21zPk_1MnVArvOttu-19">
          <mxGeometry relative="1" as="geometry" />
        </mxCell>
        <mxCell id="unA21zPk_1MnVArvOttu-4" value="Student" style="shape=umlActor;verticalLabelPosition=bottom;verticalAlign=top;html=1;" vertex="1" parent="1">
          <mxGeometry x="200" y="520" width="30" height="60" as="geometry" />
        </mxCell>
        <mxCell id="unA21zPk_1MnVArvOttu-5" value="&lt;span lang=&quot;en&quot; class=&quot;HwtZe&quot;&gt;View news&lt;/span&gt;" style="ellipse;whiteSpace=wrap;html=1;" vertex="1" parent="1">
          <mxGeometry x="315" y="40" width="100" height="80" as="geometry" />
        </mxCell>
        <mxCell id="unA21zPk_1MnVArvOttu-6" value="View information about faculties and specialties&amp;nbsp;" style="ellipse;whiteSpace=wrap;html=1;" vertex="1" parent="1">
          <mxGeometry x="315" y="130" width="100" height="80" as="geometry" />
        </mxCell>
        <mxCell id="unA21zPk_1MnVArvOttu-7" value="Apply for a role" style="ellipse;whiteSpace=wrap;html=1;" vertex="1" parent="1">
          <mxGeometry x="315" y="220" width="100" height="80" as="geometry" />
        </mxCell>
        <mxCell id="unA21zPk_1MnVArvOttu-8" value="&lt;span lang=&quot;en&quot; class=&quot;HwtZe&quot;&gt;File a complaint against a user&lt;/span&gt;" style="ellipse;whiteSpace=wrap;html=1;" vertex="1" parent="1">
          <mxGeometry x="315" y="310" width="100" height="80" as="geometry" />
        </mxCell>
        <mxCell id="unA21zPk_1MnVArvOttu-13" value="Process the complaint" style="ellipse;whiteSpace=wrap;html=1;" vertex="1" parent="1">
          <mxGeometry x="470" y="180" width="100" height="80" as="geometry" />
        </mxCell>
        <mxCell id="unA21zPk_1MnVArvOttu-14" value="Process the complaint" style="ellipse;whiteSpace=wrap;html=1;" vertex="1" parent="1">
          <mxGeometry x="470" y="280" width="100" height="80" as="geometry" />
        </mxCell>
        <mxCell id="unA21zPk_1MnVArvOttu-15" value="&lt;span lang=&quot;en&quot; class=&quot;HwtZe&quot;&gt;Administration&lt;/span&gt;" style="ellipse;whiteSpace=wrap;html=1;" vertex="1" parent="1">
          <mxGeometry x="470" y="70" width="100" height="80" as="geometry" />
        </mxCell>
        <mxCell id="unA21zPk_1MnVArvOttu-17" value="Open schedule" style="ellipse;whiteSpace=wrap;html=1;" vertex="1" parent="1">
          <mxGeometry x="370" y="510" width="100" height="80" as="geometry" />
        </mxCell>
        <mxCell id="unA21zPk_1MnVArvOttu-18" value="View user profile" style="ellipse;whiteSpace=wrap;html=1;" vertex="1" parent="1">
          <mxGeometry x="370" y="600" width="100" height="80" as="geometry" />
        </mxCell>
        <mxCell id="unA21zPk_1MnVArvOttu-19" value="Get your own subjects" style="ellipse;whiteSpace=wrap;html=1;" vertex="1" parent="1">
          <mxGeometry x="300" y="420" width="100" height="80" as="geometry" />
        </mxCell>
        <mxCell id="unA21zPk_1MnVArvOttu-20" value="Make a grade" style="ellipse;whiteSpace=wrap;html=1;" vertex="1" parent="1">
          <mxGeometry x="470" y="420" width="100" height="80" as="geometry" />
        </mxCell>
        <mxCell id="unA21zPk_1MnVArvOttu-21" value="Make attendance" style="ellipse;whiteSpace=wrap;html=1;" vertex="1" parent="1">
          <mxGeometry x="470" y="644" width="100" height="80" as="geometry" />
        </mxCell>
        <mxCell id="unA21zPk_1MnVArvOttu-31" style="edgeStyle=orthogonalEdgeStyle;rounded=0;orthogonalLoop=1;jettySize=auto;html=1;exitX=1;exitY=0.3333333333333333;exitDx=0;exitDy=0;exitPerimeter=0;entryX=0.04;entryY=0.37;entryDx=0;entryDy=0;entryPerimeter=0;curved=1;" edge="1" parent="1" source="unA21zPk_1MnVArvOttu-4" target="unA21zPk_1MnVArvOttu-17">
          <mxGeometry relative="1" as="geometry" />
        </mxCell>
        <mxCell id="unA21zPk_1MnVArvOttu-33" style="edgeStyle=orthogonalEdgeStyle;rounded=0;orthogonalLoop=1;jettySize=auto;html=1;exitX=0;exitY=0.3333333333333333;exitDx=0;exitDy=0;exitPerimeter=0;entryX=1.024;entryY=0.38;entryDx=0;entryDy=0;entryPerimeter=0;curved=1;" edge="1" parent="1" source="unA21zPk_1MnVArvOttu-3" target="unA21zPk_1MnVArvOttu-17">
          <mxGeometry relative="1" as="geometry" />
        </mxCell>
        <mxCell id="unA21zPk_1MnVArvOttu-34" style="edgeStyle=orthogonalEdgeStyle;rounded=0;orthogonalLoop=1;jettySize=auto;html=1;exitX=0.5;exitY=0.5;exitDx=0;exitDy=0;exitPerimeter=0;entryX=0.006;entryY=0.365;entryDx=0;entryDy=0;entryPerimeter=0;curved=1;" edge="1" parent="1" source="unA21zPk_1MnVArvOttu-4" target="unA21zPk_1MnVArvOttu-18">
          <mxGeometry relative="1" as="geometry" />
        </mxCell>
      </root>
    </mxGraphModel>
  </diagram>
</mxfile>
